<?xml version="1.0" encoding="UTF-8" standalone="no"?>
<!-- Created with Inkscape (http://www.inkscape.org/) -->

<svg
   xmlns:dc="http://purl.org/dc/elements/1.1/"
   xmlns:cc="http://creativecommons.org/ns#"
   xmlns:rdf="http://www.w3.org/1999/02/22-rdf-syntax-ns#"
   xmlns:svg="http://www.w3.org/2000/svg"
   xmlns="http://www.w3.org/2000/svg"
   xmlns:xlink="http://www.w3.org/1999/xlink"
   xmlns:sodipodi="http://sodipodi.sourceforge.net/DTD/sodipodi-0.dtd"
   xmlns:inkscape="http://www.inkscape.org/namespaces/inkscape"
   version="1.0"
   width="400"
   height="360"
   id="svg2"
   inkscape:version="0.91 r13725"
   sodipodi:docname="P_train.svg">
  <metadata
     id="metadata3531">
    <rdf:RDF>
      <cc:Work
         rdf:about="">
        <dc:format>image/svg+xml</dc:format>
        <dc:type
           rdf:resource="http://purl.org/dc/dcmitype/StillImage" />
      </cc:Work>
    </rdf:RDF>
  </metadata>
  <sodipodi:namedview
     pagecolor="#ffffff"
     bordercolor="#666666"
     borderopacity="1"
     objecttolerance="10"
     gridtolerance="10"
     guidetolerance="10"
     inkscape:pageopacity="0"
     inkscape:pageshadow="2"
     inkscape:window-width="1295"
     inkscape:window-height="686"
     id="namedview3529"
     showgrid="false"
     inkscape:zoom="0.65555556"
     inkscape:cx="260.04196"
     inkscape:cy="82.647458"
     inkscape:window-x="0"
     inkscape:window-y="0"
     inkscape:window-maximized="0"
     inkscape:current-layer="svg2" />
  <defs
     id="defs5">
    <linearGradient
       id="linearGradient3964">
      <stop
         style="stop-color:black;stop-opacity:1"
         offset="0"
         id="stop3966" />
      <stop
         style="stop-color:white;stop-opacity:1"
         offset="1"
         id="stop3968" />
    </linearGradient>
    <linearGradient
       id="linearGradient3938">
      <stop
         style="stop-color:#6b6b6b;stop-opacity:1"
         offset="0"
         id="stop3940" />
      <stop
         style="stop-color:#d5d5d5;stop-opacity:1"
         offset="1"
         id="stop3942" />
    </linearGradient>
    <linearGradient
       id="linearGradient2965">
      <stop
         style="stop-color:white;stop-opacity:1"
         offset="0"
         id="stop2967" />
      <stop
         style="stop-color:#3f3f3f;stop-opacity:1"
         offset="1"
         id="stop2969" />
    </linearGradient>
    <linearGradient
       id="linearGradient2935">
      <stop
         style="stop-color:black;stop-opacity:1"
         offset="0"
         id="stop2937" />
      <stop
         style="stop-color:black;stop-opacity:0"
         offset="1"
         id="stop2939" />
    </linearGradient>
    <linearGradient
       id="linearGradient2889">
      <stop
         style="stop-color:#a0a3e1;stop-opacity:1"
         offset="0"
         id="stop2891" />
      <stop
         style="stop-color:#dedcfa;stop-opacity:1"
         offset="1"
         id="stop2893" />
    </linearGradient>
    <linearGradient
       id="linearGradient2812">
      <stop
         style="stop-color:black;stop-opacity:1"
         offset="0"
         id="stop2814" />
      <stop
         style="stop-color:white;stop-opacity:0"
         offset="1"
         id="stop2816" />
    </linearGradient>
    <mask
       id="mask2799">
      <path
         d="M 168.99397,144.76334 C 168.99397,144.76334 214.49314,156.63269 246.14473,148.71979 C 277.79633,140.80689 309.44793,103.22062 309.44793,103.22062 C 309.44793,103.22062 344.06686,191.25162 348.02331,221.91411 C 351.97976,252.57659 350.00153,289.17375 327.25195,311.92334 C 304.50236,334.67292 255.67246,325.40751 232.29716,302.03221 C 218.4143,288.14936 204.60201,261.4786 192.73266,233.78346 C 180.86331,206.08831 168.00485,143.77423 168.99397,144.76334 z "
         style="fill:#e8e7fe;fill-opacity:1;fill-rule:evenodd;stroke:black;stroke-width:3.125;stroke-linecap:butt;stroke-linejoin:round;stroke-miterlimit:4;stroke-dasharray:none;stroke-opacity:1"
         id="use2796" />
    </mask>
    <mask
       id="mask2858">
      <path
         d="M 100,24 C 100,24 88.5,66.5 134,76 C 179.5,85.5 217,67 217,67 C 217,67 211,163.46447 196,192.46447 C 181,221.46447 141.5,254 118,254 C 94.5,254 76,238.5 70,223.5 C 64,208.5 60.5,128 71,102 C 78.202941,84.164147 73,78.5 82,49.5 C 87.643273,31.316121 100.5,23 100,24 z "
         style="fill:#e8e7fe;fill-opacity:1;fill-rule:evenodd;stroke:black;stroke-width:3.125;stroke-linecap:butt;stroke-linejoin:miter;stroke-miterlimit:4;stroke-dasharray:none;stroke-opacity:1"
         id="use2848" />
    </mask>
    <linearGradient
       x1="92.604424"
       y1="304.50995"
       x2="263.82959"
       y2="26.290426"
       id="linearGradient2895"
       xlink:href="#linearGradient2889"
       gradientUnits="userSpaceOnUse" />
    <linearGradient
       x1="162.625"
       y1="190"
       x2="124.875"
       y2="141"
       id="linearGradient2941"
       xlink:href="#linearGradient2935"
       gradientUnits="userSpaceOnUse" />
    <radialGradient
       cx="126.96671"
       cy="60.548233"
       r="38.593609"
       fx="126.96671"
       fy="60.548233"
       id="radialGradient2973"
       xlink:href="#linearGradient2965"
       gradientUnits="userSpaceOnUse"
       gradientTransform="matrix(0.828879,1.120816e-2,-3.007379e-2,2.224046,28.98796,-87.07468)" />
    <linearGradient
       x1="210.25703"
       y1="170.84894"
       x2="192.0867"
       y2="125.59411"
       id="linearGradient3944"
       xlink:href="#linearGradient3938"
       gradientUnits="userSpaceOnUse" />
    <linearGradient
       x1="230.125"
       y1="206.5"
       x2="201.875"
       y2="128.5"
       id="linearGradient3970"
       xlink:href="#linearGradient3964"
       gradientUnits="userSpaceOnUse" />
  </defs>
  <path
     d="M 82,301 C 82,301 98,353 103,354 C 108,355 206,331 208,326 C 210,321 206,310 206,310 L 224,304 C 224,304 230,314 238,312 C 246,310 251,288 251,288 L 256,286.75 C 256,286.75 263,301.25 270,297.75 C 277,294.25 283.25,271 283.25,271 L 293.5,266.75 C 293.5,266.75 304,274 310.75,265 C 317.5,256 318,239.75 318,239.75 C 318,239.75 326.75,227 331.5,216.5 C 336.25,206 340,197 340,197 L 362.25,182.75 L 349.75,172.25 L 355,84 L 233,76 L 194.5,80 C 194.5,80 203,41.5 199.5,36.5 C 196,31.5 177,26 160,26 C 143,26 124.5,29 122.5,32.5 C 120.5,36 130.5,135 130.5,135 C 130.5,135 108.5,148 107,167.5 C 105.5,187 119.25,209.75 119.25,209.75 L 114.75,238.75 L 82,301 z "
     style="opacity:0.3;fill:black;fill-opacity:1;fill-rule:evenodd;stroke:none;stroke-width:1px;stroke-linecap:butt;stroke-linejoin:miter;stroke-opacity:1"
     id="path3978" />
  <rect
     width="152"
     height="77"
     x="154"
     y="164"
     style="opacity:1;fill:black;fill-opacity:1;stroke:none;stroke-width:3.75;stroke-linecap:round;stroke-linejoin:round;stroke-miterlimit:4;stroke-dasharray:none;stroke-opacity:1"
     id="rect3972" />
  <path
     d="M 170,225 L 283,175 L 250,138 L 142,195"
     style="fill:url(#linearGradient3970);fill-opacity:1;fill-rule:evenodd;stroke:black;stroke-width:3.75;stroke-linecap:butt;stroke-linejoin:miter;stroke-miterlimit:4;stroke-dasharray:none;stroke-opacity:1"
     id="path3954" />
  <path
     d="M 158,75 L 223,68 L 344,77 L 276,135"
     style="fill:#d5d5d5;fill-opacity:1;fill-rule:evenodd;stroke:black;stroke-width:3.75;stroke-linecap:butt;stroke-linejoin:round;stroke-miterlimit:4;stroke-dasharray:none;stroke-opacity:1"
     id="path3976" />
  <path
     d="M 337.28993,171.9096 L 343.6539,77.864394 L 277.42493,84.308045 L 164.22035,75.571501 L 149.37632,146.1002 L 215.31402,110.3913 L 281.4285,193.1228"
     style="fill:#6b6b6b;fill-opacity:1;fill-rule:evenodd;stroke:black;stroke-width:3.75;stroke-linecap:butt;stroke-linejoin:miter;stroke-miterlimit:4;stroke-dasharray:none;stroke-opacity:1"
     id="path3950" />
  <use
     transform="matrix(-1,0,0,1,447,0)"
     id="use3952"
     x="0"
     y="0"
     width="400"
     height="360"
     xlink:href="#path3932" />
  <path
     d="M 219.5,286 C 188.16781,309.83359 169.45909,284.60434 214,272.5 C 174.45287,284.95411 147.95443,254.18239 216.5,246.5 C 172.73735,255.6729 138.85475,222.41203 217,218.5"
     style="fill:#1f1f1f;fill-opacity:1;fill-rule:evenodd;stroke:black;stroke-width:7.5;stroke-linecap:butt;stroke-linejoin:miter;stroke-miterlimit:4;stroke-dasharray:none;stroke-opacity:1"
     id="path3920" />
  <path
     d="M 113.5,192 C 106.88225,211.82837 105.61883,225.45698 107.94975,234.92373 L 178,236.5 C 178.39714,218.62945 171.93718,204.75887 167,190"
     style="fill:#6b6b6b;fill-opacity:1;fill-rule:evenodd;stroke:black;stroke-width:3.75;stroke-linecap:butt;stroke-linejoin:miter;stroke-miterlimit:4;stroke-dasharray:none;stroke-opacity:1"
     id="path2955" />
  <path
     d="M 106.06602,230.59946 C 94.752311,253.69746 83.438601,274.66858 72.124892,292.11775 C 80.149127,308.81505 86.890223,342.35518 96.87363,342.32233 C 108.14417,342.28525 187.90592,324.87423 196.57568,316.15938 C 202.92472,309.77731 178.57356,226.03237 179.60512,227.06393 C 150.4775,240.20058 129.66897,234.03681 106.06602,230.59946 z "
     style="fill:#d5d5d5;fill-opacity:1;fill-rule:evenodd;stroke:black;stroke-width:3.75;stroke-linecap:butt;stroke-linejoin:miter;stroke-miterlimit:4;stroke-dasharray:none;stroke-opacity:1"
     id="path2943" />
  <path
     d="M 172.38095,244.7619 L 179.04762,308.57143 M 161.38095,244.7619 L 159.42857,310.52381 M 149.04762,245.71429 L 137.38095,315.80952 M 137.61905,245.71429 L 117.95238,327.04762 M 128.57143,245.71429 L 101.95238,323.19048 M 119.90476,245.28571 L 93.761905,307.80952 M 109.38095,245.14286 L 87.476191,288.95238"
     style="fill:none;fill-opacity:0.75;fill-rule:evenodd;stroke:black;stroke-width:3.75;stroke-linecap:round;stroke-linejoin:miter;stroke-miterlimit:4;stroke-opacity:1"
     id="path1979" />
  <path
     d="M 115.75808,195.46589 C 105.41132,220.11081 124.73528,218.71608 140.98738,219.4355 C 157.23949,220.15492 174.5883,220.70553 168.86934,199.42187"
     style="fill:#a2a2a2;fill-opacity:1;fill-rule:evenodd;stroke:black;stroke-width:1.00000012px;stroke-linecap:butt;stroke-linejoin:miter;stroke-opacity:1"
     id="path2957" />
  <g
     id="g3946">
    <path
       d="M 166.8772,202.31519 L 255.26554,162.0101 C 255.02724,135.95688 247.00554,114.12148 217.08178,111.09841 L 137.17872,125.24055"
       style="fill:url(#linearGradient3944);fill-opacity:1;fill-rule:evenodd;stroke:black;stroke-width:3.75;stroke-linecap:butt;stroke-linejoin:round;stroke-miterlimit:4;stroke-dasharray:none;stroke-opacity:1"
       id="path3934" />
    <path
       d="M 185.96909,116.75526 C 217.97343,130.32508 223.94393,158.37072 221.32442,177.2129"
       style="fill:none;fill-opacity:0.75;fill-rule:evenodd;stroke:black;stroke-width:3.75;stroke-linecap:butt;stroke-linejoin:round;stroke-miterlimit:4;stroke-dasharray:none;stroke-opacity:1"
       id="path3936" />
  </g>
  <path
     d="M 124.80434,144.33243 C 124.80434,144.33243 108.54088,28.013366 115.61195,23.417172 C 122.68302,18.820978 178.1909,13.164124 185.96907,26.599153 C 193.74724,40.034182 164.04876,142.21111 164.04876,142.21111"
     style="fill:url(#radialGradient2973);fill-opacity:1;fill-rule:evenodd;stroke:black;stroke-width:3.75;stroke-linecap:butt;stroke-linejoin:miter;stroke-miterlimit:4;stroke-dasharray:none;stroke-opacity:1"
     id="path2959" />
  <path
     d="M 187.3833 169.78827 A 45.961941 45.961941 0 1 1  95.459415,169.78827 A 45.961941 45.961941 0 1 1  187.3833 169.78827 z"
     style="opacity:1;fill:#d5d5d5;fill-opacity:1;stroke:black;stroke-width:3.75;stroke-linecap:round;stroke-miterlimit:4;stroke-dasharray:none;stroke-opacity:1"
     id="path2953"
     transform="translate(2.828428,-2.828428)" />
  <path
     d="M 151.42857 166.66667 A 9.0476189 9.0476189 0 1 1  133.33333,166.66667 A 9.0476189 9.0476189 0 1 1  151.42857 166.66667 z"
     style="opacity:1;fill:black;fill-opacity:1;stroke:none;stroke-width:1.92567611;stroke-linecap:round;stroke-miterlimit:4;stroke-dasharray:none;stroke-opacity:1"
     id="path2881"
     transform="matrix(1.947368,0,0,1.947368,-134.8872,-153.4185)" />
  <path
     d="M 151.42857 166.66667 A 9.0476189 9.0476189 0 1 1  133.33333,166.66667 A 9.0476189 9.0476189 0 1 1  151.42857 166.66667 z"
     style="opacity:1;fill:#dbdbdb;fill-opacity:1;stroke:none;stroke-width:3.75;stroke-linecap:round;stroke-miterlimit:4;stroke-dasharray:none;stroke-opacity:1"
     id="path1993" />
  <path
     d="M 159.5,186.5 L 166,195 M 165,176.5 L 175.5,184.5 M 166.5,165.5 L 180,169.5 M 164.5,158 L 176,151.5 M 150.5,191 L 155.5,202 M 142.5,193.00001 L 143,205.50001 M 134,192.5 L 130,204 M 127.5,188.5 L 120.5,197.5 M 157.5,151 L 168.5,140.5 M 150.5,147.5 C 151,145 156.5,133.5 156.5,133.5 M 143.5,147.5 L 144.5,131.5 M 136,150 L 131,136 M 129,153.5 L 120,143.5 M 123.5,160 L 112,155 M 122.5,168.5 L 110.5,168 M 122.5,175.5 L 110.5,177.5 M 123.5,182.5 L 115.5,187.5"
     style="fill:none;fill-opacity:0.75;fill-rule:evenodd;stroke:url(#linearGradient2941);stroke-width:3.75;stroke-linecap:round;stroke-linejoin:miter;stroke-miterlimit:4;stroke-opacity:1"
     id="path2883" />
  <path
     d="M 141.5981,18.644201 C 116.04416,19.704861 115.08159,27.483035 115.08159,27.483035 C 133.49271,33.545326 157.23828,33.943661 184.55484,26.952706 C 180.62326,22.45793 174.40742,18.997754 162.10419,18.997754"
     style="fill:#6b6b6b;fill-opacity:1;fill-rule:evenodd;stroke:none;stroke-width:1px;stroke-linecap:butt;stroke-linejoin:miter;stroke-opacity:1"
     id="path2963" />
  <path
     d="M 227.5,291.5 C 232.5,276.5 259,279 261.5,271 C 264,263 286.5,256.5 290.5,253 C 294.5,249.5 340.5,189.5 328,175.5 C 315.5,161.5 287,225.5 287,225.5 L 221,257.5"
     style="fill:black;fill-opacity:1;fill-rule:evenodd;stroke:none;stroke-width:1px;stroke-linecap:butt;stroke-linejoin:miter;stroke-opacity:1"
     id="path3918" />
  <g
     id="g3900">
    <path
       d="M 240.4163 254.99464 A 15.379573 47.72971 0 1 1  209.65716,254.99464 A 15.379573 47.72971 0 1 1  240.4163 254.99464 z"
       style="opacity:1;fill:#e4e4e4;fill-opacity:1;stroke:black;stroke-width:3.75;stroke-linecap:round;stroke-miterlimit:4;stroke-dasharray:none;stroke-opacity:1"
       id="path2986" />
    <g
       style="opacity:0.8"
       id="g3890">
      <path
         d="M 224.85996,206.91138 L 224.85996,302.01724"
         style="fill:none;fill-opacity:0.75;fill-rule:evenodd;stroke:black;stroke-width:3.75;stroke-linecap:butt;stroke-linejoin:miter;stroke-miterlimit:4;stroke-dasharray:none;stroke-opacity:1"
         id="path3873" />
      <path
         d="M 209.65716,253.58043 L 240.41631,253.93398"
         style="fill:none;fill-opacity:0.75;fill-rule:evenodd;stroke:black;stroke-width:3.75;stroke-linecap:butt;stroke-linejoin:miter;stroke-miterlimit:4;stroke-dasharray:none;stroke-opacity:1"
         id="path3875" />
      <path
         d="M 235.113,219.99286 L 214.60691,288.93577"
         style="fill:none;fill-opacity:0.75;fill-rule:evenodd;stroke:black;stroke-width:3.75;stroke-linecap:butt;stroke-linejoin:miter;stroke-miterlimit:4;stroke-dasharray:none;stroke-opacity:1"
         id="path3877" />
      <path
         d="M 214.25335,221.05352 L 236.17367,286.81445"
         style="fill:none;fill-opacity:0.75;fill-rule:evenodd;stroke:black;stroke-width:3.75;stroke-linecap:butt;stroke-linejoin:miter;stroke-miterlimit:4;stroke-dasharray:none;stroke-opacity:1"
         id="path3879" />
      <path
         d="M 231.22392,211.50758 L 218.496,298.12816"
         style="fill:none;fill-opacity:0.75;fill-rule:evenodd;stroke:black;stroke-width:3.75;stroke-linecap:butt;stroke-linejoin:miter;stroke-miterlimit:4;stroke-dasharray:none;stroke-opacity:1"
         id="path3881" />
      <path
         d="M 217.43534,212.56824 L 231.93102,296.71394"
         style="fill:none;fill-opacity:0.75;fill-rule:evenodd;stroke:black;stroke-width:3.75;stroke-linecap:butt;stroke-linejoin:miter;stroke-miterlimit:4;stroke-dasharray:none;stroke-opacity:1"
         id="path3883" />
      <path
         d="M 239.35565,238.73119 L 210.36427,269.84389"
         style="fill:none;fill-opacity:0.75;fill-rule:evenodd;stroke:black;stroke-width:3.75;stroke-linecap:butt;stroke-linejoin:miter;stroke-miterlimit:4;stroke-dasharray:none;stroke-opacity:1"
         id="path3885" />
      <path
         d="M 210.71782,239.08474 L 239.7092,268.78323"
         style="fill:none;fill-opacity:0.75;fill-rule:evenodd;stroke:black;stroke-width:3.75;stroke-linecap:butt;stroke-linejoin:miter;stroke-miterlimit:4;stroke-dasharray:none;stroke-opacity:1"
         id="path3887" />
    </g>
  </g>
  <path
     d="M 277.5,196.5 L 291.5,207.5 L 350,173 L 335.5,161.5 L 277.5,196.5 z "
     style="fill:#6b6b6b;fill-opacity:1;fill-rule:evenodd;stroke:black;stroke-width:3.75;stroke-linecap:butt;stroke-linejoin:round;stroke-miterlimit:4;stroke-dasharray:none;stroke-opacity:1"
     id="path3922" />
  <use
     transform="translate(32.5,-16.5)"
     id="use3912"
     x="0"
     y="0"
     width="400"
     height="360"
     xlink:href="#g3900" />
  <use
     transform="matrix(1,0,0,0.543563,66,93.80826)"
     id="use3914"
     x="0"
     y="0"
     width="400"
     height="360"
     xlink:href="#g3900" />
  <path
     d="M 224,253 L 258.5,237.5 L 291.5,231.5"
     style="fill:none;fill-opacity:0.75;fill-rule:evenodd;stroke:black;stroke-width:7.5;stroke-linecap:round;stroke-linejoin:miter;stroke-miterlimit:4;stroke-dasharray:none;stroke-opacity:1"
     id="path3916" />
  <path
     d="M 287,186.5 L 287,164 L 327.5,148 L 327.5,164.5 L 287,186.5 z "
     style="fill:#d5d5d5;fill-opacity:1;fill-rule:evenodd;stroke:black;stroke-width:3.75;stroke-linecap:butt;stroke-linejoin:miter;stroke-miterlimit:4;stroke-dasharray:none;stroke-opacity:1"
     id="path3924" />
  <path
     d="M 285.5,156 L 285.5,89 L 333,89 L 333,139.5 L 285.5,156 z "
     style="fill:black;fill-opacity:1;fill-rule:evenodd;stroke:white;stroke-width:3.75;stroke-linecap:butt;stroke-linejoin:round;stroke-miterlimit:4;stroke-dasharray:none;stroke-opacity:1"
     id="path3926" />
  <path
     d="M 316.5,90 L 316.5,144"
     style="fill:none;fill-opacity:0.75;fill-rule:evenodd;stroke:white;stroke-width:3.75;stroke-linecap:butt;stroke-linejoin:miter;stroke-miterlimit:4;stroke-dasharray:none;stroke-opacity:1"
     id="path3928" />
  <path
     d="M 316.5,119 L 333,119"
     style="fill:none;fill-opacity:0.75;fill-rule:evenodd;stroke:white;stroke-width:3.75;stroke-linecap:butt;stroke-linejoin:miter;stroke-miterlimit:4;stroke-dasharray:none;stroke-opacity:1"
     id="path3930" />
  <path
     d="M 270.25,144.5 L 270.25,89.5 L 228.75,89.5 L 228.75,100.5 L 270.25,144.5 z "
     style="fill:black;fill-opacity:1;fill-rule:evenodd;stroke:white;stroke-width:3.75;stroke-linecap:butt;stroke-linejoin:round;stroke-miterlimit:4;stroke-dasharray:none;stroke-opacity:1"
     id="path3932" />
  <path
     d="M 277.5,83.30019 L 277.5,198.19997"
     style="fill:none;fill-opacity:0.75;fill-rule:evenodd;stroke:black;stroke-width:3.75000119;stroke-linecap:butt;stroke-linejoin:miter;stroke-miterlimit:4;stroke-dasharray:none;stroke-opacity:1"
     id="path3974" />
</svg>
