<?xml version="1.0" encoding="UTF-8" standalone="no"?>
<svg
   xmlns:dc="http://purl.org/dc/elements/1.1/"
   xmlns:cc="http://creativecommons.org/ns#"
   xmlns:rdf="http://www.w3.org/1999/02/22-rdf-syntax-ns#"
   xmlns:svg="http://www.w3.org/2000/svg"
   xmlns="http://www.w3.org/2000/svg"
   xmlns:sodipodi="http://sodipodi.sourceforge.net/DTD/sodipodi-0.dtd"
   xmlns:inkscape="http://www.inkscape.org/namespaces/inkscape"
   viewBox="0 0 427.5 198.75"
   height="198.75"
   width="427.5"
   version="1.1"
   id="svg3904"
   inkscape:version="0.91 r13725"
   sodipodi:docname="train.svg">
  <sodipodi:namedview
     pagecolor="#ffffff"
     bordercolor="#666666"
     borderopacity="1"
     objecttolerance="10"
     gridtolerance="10"
     guidetolerance="10"
     inkscape:pageopacity="0"
     inkscape:pageshadow="2"
     inkscape:window-width="1440"
     inkscape:window-height="808"
     id="namedview13"
     showgrid="false"
     inkscape:zoom="1.0255116"
     inkscape:cx="408.68273"
     inkscape:cy="65.132737"
     inkscape:window-x="0"
     inkscape:window-y="0"
     inkscape:window-maximized="1"
     inkscape:current-layer="svg3904" />
  <metadata
     id="metadata3910">
    <rdf:RDF>
      <cc:Work
         rdf:about="">
        <dc:format>image/svg+xml</dc:format>
        <dc:type
           rdf:resource="http://purl.org/dc/dcmitype/StillImage" />
        <dc:title />
      </cc:Work>
    </rdf:RDF>
  </metadata>
  <defs
     id="defs3908" />
  <path
     inkscape:connector-curvature="0"
     style="fill:#1c2422;opacity:1"
     d="m 2.8582777,188.99012 c 0,-9.81309 0.29982,-11.32616 2.51894,-12.71203 1.38542,-0.86521 19.2448003,-8.24615 39.6875003,-16.4021 55.997592,-22.34112 75.514602,-30.80442 83.589802,-36.24765 4.03081,-2.71704 18.29751,-11.89256 31.70376,-20.39004 22.19926,-14.070898 55.08723,-38.493033 95.94567,-71.247906 29.3604,-23.5372565 35.42022,-26.1387275 67.59754,-29.0195135 40.8645,-3.65853605 80.01118,5.1803 86.85937,19.6117695 1.15358,2.431002 2.09742,5.654926 2.09742,7.164278 0,1.509352 2.26201,5.314052 5.02669,8.45489 8.39052,9.532145 9.62951,16.159166 10.80586,57.798011 1.18299,41.873821 1.17295,46.773501 -0.14994,73.125001 -0.85333,16.99802 -1.35997,20.39246 -3.37536,22.61466 -2.26135,2.4934 -3.97854,2.65136 -37.02679,3.40598 -21.16179,0.4832 -42.9295,0.24815 -55.90546,-0.60369 -15.90656,-1.04422 -35.42821,-1.01466 -77.63454,0.1175 -31.01149,0.83189 -69.26149,1.48896 -85,1.46016 -31.45346,-0.0576 -120.836332,1.8447 -148.927962,3.16951 l -17.8125003,0.84008 0,-11.13891 z"
     id="path3928" />
  <path
     inkscape:connector-curvature="0"
     style="fill:#d5fff6;opacity:1"
     d="m 3.1206677,188.9859 0.36261,-10.96138 34.3750003,-13.56525 c 47.84237,-18.87983 85.163422,-34.6132 88.125002,-37.15074 1.375,-1.17812 11.78125,-7.93638 23.125,-15.01835 33.9675,-21.206101 50.58697,-33.339335 106.25,-77.569029 29.24539,-23.238303 35.54178,-26.2267945 64.4303,-30.5809045 21.69811,-3.27036305 41.62639,-1.912731 64.118,4.368098 18.16425,5.0724045 25.48261,10.5561635 27.13425,20.3321045 0.58822,3.481694 2.49821,7.094219 5.63477,10.657541 2.60972,2.964783 5.67439,8.031188 6.81042,11.258676 3.14293,8.929232 5.98105,62.026584 5.09595,95.338424 -0.92098,34.66193 -1.65917,41.59573 -4.78564,44.95161 -2.45503,2.63515 -2.70153,2.6442 -53.88968,1.97869 -68.63722,-0.89237 -75.89536,-0.86042 -124.54837,0.54815 -23.03125,0.66679 -58.46875,1.20953 -78.75,1.20609 -32.31224,-0.005 -102.003952,2.0573 -148.487612,4.39506 l -15.3626003,0.77261 0.3626,-10.96139 z M 381.72782,74.664712 c 5.66556,-4.034237 4.52721,-12.414883 -1.68633,-12.414883 -2.95705,0 -10.93312,6.311584 -10.93317,8.651574 -5e-5,2.663735 3.80931,6.348426 6.56324,6.348426 1.33418,0 4.05951,-1.163303 6.05626,-2.585117 z m -5.43204,-41.151183 c 3.32259,-2.025824 4.0625,-3.264215 4.0625,-6.799448 0,-3.049718 -0.81804,-4.895463 -2.77814,-6.268372 -3.72689,-2.610418 -6.24251,-2.45104 -10.17828,0.644845 -4.31349,3.392986 -4.58081,10.11591 -0.51544,12.963395 3.5734,2.502907 4.50577,2.449356 9.40936,-0.54042 z"
     id="path3926" />
  <path
     inkscape:connector-curvature="0"
     style="fill:#5f8dd3;opacity:1"
     d="m 3.1265177,188.61078 c 0.32162,-9.49715 0.60298,-10.55597 2.85676,-10.75069 2.8044,-0.24227 70.9086503,-27.22003 100.4760223,-39.80101 10.57431,-4.49939 20.41806,-9.25097 21.875,-10.55907 1.45694,-1.3081 11.93023,-8.17619 23.27398,-15.26243 11.34375,-7.08624 24,-15.156638 28.125,-17.934216 8.35755,-5.62757 68.06632,-51.584557 83.95852,-64.621676 5.61469,-4.605991 13.60679,-10.438859 17.7602,-12.961928 8.59133,-5.218954 26.05067,-10.1303665 40.74568,-11.4619935 5.21404,-0.472483 9.77889,-1.342558 10.1441,-1.933499 0.8872,-1.435507 17.47077,-1.379578 20.22096,0.0682 1.1938,0.628449 6.93324,1.801185 12.75431,2.60608 12.4971,1.728007 28.5994,6.5359775 35.80729,10.6916625 5.14713,2.967568 7.14079,6.255166 8.46444,13.958061 0.40126,2.33511 2.67475,6.02288 5.41794,8.788291 7.18415,7.242356 9.08671,14.079736 10.52186,37.813271 0.68594,11.34375 1.50439,23.437497 1.81877,26.874997 1.49199,16.31329 1.97008,44.49313 0.77952,45.9462 -0.7002,0.85459 -1.6856,9.64545 -2.18978,19.53524 -0.7698,15.10024 -1.29019,18.35494 -3.24775,20.3125 -2.1902,2.1902 -4.99357,2.32555 -46.39356,2.23981 -24.23438,-0.0501 -47.15625,-0.53954 -50.9375,-1.08744 -3.78125,-0.5479 -34.71875,-0.21998 -68.75,0.72869 -34.03125,0.94869 -75.65625,1.71126 -92.5,1.69463 -36.17639,-0.0358 -98.687022,1.94925 -118.125002,3.751 -7.5625,0.701 -20.37929,1.41526 -28.48176,1.58727 l -14.7317603,0.31274 0.35676,-10.53469 z m 8.4817603,-3.86095 c 0,-1.56615 -1.32655,-1.56615 -3.7500003,0 -1.5162,0.97984 -1.3368,1.21537 0.9375,1.23086 1.5468703,0.0105 2.8125003,-0.54336 2.8125003,-1.23086 z m 13.125,-3.75 c 0.4249,-0.6875 0.17684,-1.25 -0.55123,-1.25 -0.72807,0 -1.32377,0.5625 -1.32377,1.25 0,0.6875 0.24805,1.25 0.55123,1.25 0.30317,0 0.89887,-0.5625 1.32377,-1.25 z m 11.875,-2.5 c 0,-0.6875 -0.5625,-1.25 -1.25,-1.25 -0.6875,0 -1.25,0.5625 -1.25,1.25 0,0.6875 0.5625,1.25 1.25,1.25 0.6875,0 1.25,-0.5625 1.25,-1.25 z m 7.22788,-2.30688 c 0.35822,-1.07578 -0.24282,-1.52625 -1.66784,-1.25 -1.22533,0.23753 -2.47989,1.18873 -2.78792,2.11376 -0.35822,1.07578 0.24282,1.52625 1.66784,1.25 1.22533,-0.23753 2.47989,-1.18873 2.78792,-2.11376 z m 8.75,-2.5 c 0.35822,-1.07578 -0.24282,-1.52625 -1.66784,-1.25 -1.22533,0.23753 -2.47989,1.18873 -2.78792,2.11376 -0.35822,1.07578 0.24282,1.52625 1.66784,1.25 1.22533,-0.23753 2.47989,-1.18873 2.78792,-2.11376 z m 26.52212,-6.5169 c 0,-0.64692 -0.84375,-1.17622 -1.875,-1.17622 -1.93301,0 -2.48338,1.47495 -1.07565,2.88269 0.99866,0.99866 2.95065,-0.13024 2.95065,-1.70647 z m 56.250002,-16.90538 c 0,-3.9159 -2.93559,-3.4873 -3.52444,0.51457 -0.26526,1.80276 0.25958,2.71459 1.5625,2.71459 1.27628,0 1.96194,-1.12854 1.96194,-3.22916 z m 9.7667,-3.96858 c 0.27974,-2.89402 -0.12864,-4.05226 -1.42876,-4.05226 -1.9992,0 -3.33794,2.58442 -3.33794,6.44389 0,4.39675 4.32004,2.22923 4.7667,-2.39163 z M 384.20443,76.095983 c 4.3131,-4.313093 4.65319,-8.488559 1.06312,-13.05258 -4.40313,-5.597678 -13.58771,-4.23014 -17.20509,2.56175 -2.24803,4.220837 -1.76458,6.52659 2.19967,10.49083 4.74124,4.741241 9.20106,4.741241 13.9423,0 z M 377.00295,35.79565 c 8.17393,-4.353458 7.4637,-15.320445 -1.20561,-18.616512 -3.80934,-1.44831 -10.89175,1.245256 -12.83845,4.882691 -4.90596,9.166889 4.7992,18.657665 14.04406,13.733821 z"
     id="path3924" />
  <path
     inkscape:connector-curvature="0"
     style="fill:#d5f6ff;opacity:1"
     d="m 2.8582777,198.30042 c 0,-0.46324 0.70312,-1.12598 1.5625,-1.47274 1.25,-0.50439 1.25,-0.65021 0,-0.72916 -2.58186,-0.16306 -1.76216,-2.36443 1.25,-3.35699 1.54687,-0.50972 7.0312503,-1.53201 12.1875003,-2.27174 8.91279,-1.27865 9.3945,-1.51443 9.77053,-4.78246 0.40013,-3.47749 -0.78603,-4.39351 -2.95803,-2.28436 -1.15232,1.11897 -15.1462703,5.09686 -17.9304303,5.09686 -0.76014,0 -1.38207,-1.125 -1.38207,-2.5 0,-1.375 -0.5625,-2.5 -1.25,-2.5 -0.6875,0 -1.25,-1.125 -1.25,-2.5 0,-1.375 0.74274,-2.5 1.65053,-2.5 1.83941,0 72.6545803,-28.03409 100.8494723,-39.92397 9.96875,-4.20387 19.61409,-8.72735 21.43409,-10.05219 1.82,-1.32485 13.85275,-8.92044 26.73943,-16.87909 12.88669,-7.95865 25.08138,-15.85953 27.09932,-17.557512 2.01793,-1.697982 4.22709,-3.087239 4.90921,-3.087239 1.27062,0 4.94976,-2.56248 44.63915,-31.090735 18.59245,-13.364029 23.28426,-16.212891 24.7279,-15.014776 1.37929,1.14471 1.70199,4.432106 1.4288,14.555351 l -0.3529,13.076675 -34.375,20.997949 -34.375,20.997947 -0.33981,23.9567 c -0.31834,22.44238 -0.19983,23.91273 1.875,23.26113 1.21815,-0.38258 20.49606,-4.94782 42.83981,-10.145 53.14109,-12.36067 49.8764,-11.42288 49.16998,-14.12425 -0.39322,-1.50363 1.22922,-3.92277 4.90032,-7.30667 3.01849,-2.78235 6.00937,-5.27942 6.64642,-5.54906 0.63705,-0.26964 2.34914,-3.0233 3.80464,-6.11923 3.8727,-8.23749 3.27673,-20.118376 -1.24599,-24.839079 -4.48408,-4.680378 -4.1578,-7.254698 1.20343,-9.494765 3.95425,-1.652192 4.39516,-2.276348 3.76466,-5.329275 -0.39277,-1.901852 -0.86136,-9.926662 -1.0413,-17.832912 -0.30357,-13.338781 -0.11687,-14.669884 2.5906,-18.465799 1.60478,-2.24994 5.00779,-5.157045 7.56225,-6.460233 5.38947,-2.749499 19.36643,-5.789544 32.31179,-7.027943 5.60521,-0.536215 9.63184,-1.57593 10.59423,-2.735537 1.36627,-1.646269 0.28208,-1.76736 -9.0418,-1.009857 -15.67282,1.273313 -24.19755,2.961652 -36.13163,7.155929 -5.89192,2.070741 -12.30361,4.06671 -14.24819,4.435484 -1.94457,0.368774 -3.91332,1.675886 -4.375,2.904694 -1.14264,3.041268 -17.80411,16.187625 -20.52691,16.196296 -1.9206,0.0061 -2.1875,-1.355443 -2.1875,-11.159346 l 0,-11.166314 5.44124,-4.458686 c 6.5018,-5.327733 12.12066,-5.95255 15.11288,-1.680555 1.88264,2.687856 1.94588,2.592602 1.94588,-2.931265 0,-7.047944 1.69449,-8.725998 12.5,-12.378791 11.31992,-3.8266865 25.07878,-6.1231155 36.99376,-6.1744665 8.57852,-0.03697 10.46455,0.338473 12.3904,2.466509 2.17319,2.4013555 2.37714,2.4148965 4.70678,0.3125 5.19049,-4.684171 31.44722,-0.07208 42.94441,7.5433365 7.22264,4.784077 11.92046,13.713943 8.83686,16.797547 -1.66426,1.664256 -2.80225,1.564021 -10.20255,-0.89864 -4.58115,-1.524508 -8.61601,-2.485183 -8.96636,-2.134832 -0.35035,0.35035 3.44241,1.924483 8.42835,3.498072 14.02855,4.427483 23.31995,12.821277 26.02204,23.508162 4.45271,17.610688 9.55841,89.342386 6.6149,92.934936 -0.7002,0.85459 -1.6856,9.64545 -2.18978,19.53524 -0.7698,15.10023 -1.29018,18.35494 -3.24775,20.3125 -2.1902,2.1902 -4.99357,2.32555 -46.39356,2.23981 -24.23438,-0.0501 -47.15625,-0.53954 -50.9375,-1.08744 -3.78125,-0.5479 -34.71875,-0.21998 -68.75,0.72869 -34.03125,0.94869 -75.65625,1.71126 -92.5,1.69463 -36.17639,-0.0358 -98.687022,1.94925 -118.125002,3.751 -16.83843,1.56081 -43.1250003,2.20384 -43.1250003,1.05496 z M 112.54578,187.77602 c 5.67188,-0.43252 10.3125,-1.29035 10.3125,-1.90629 0,-1.54827 -3.42424,-1.41585 -20.67692,0.79966 -24.710772,3.17325 -21.388592,3.52797 10.36442,1.10663 z m -61.514992,-1.1412 c 8.22387,-1.02577 15.37436,-1.86952 15.88999,-1.875 0.51562,-0.005 0.9375,-4.22874 0.9375,-9.38499 0,-7.42938 -0.38264,-9.375 -1.84375,-9.375 -1.36895,0 -1.65655,0.93601 -1.1168,3.63474 0.55116,2.7558 0.16577,3.92262 -1.59375,4.82531 -4.67112,2.3964 -25.50948,6.79496 -28.56191,6.02885 -2.90038,-0.72795 -3.13379,-0.4589 -3.13379,3.61229 0,5.2073 -0.98338,5.07901 19.42251,2.5338 z m -39.42251,-1.88499 c 0,-1.56615 -1.32655,-1.56615 -3.7500003,0 -1.5162,0.97984 -1.3368,1.21537 0.9375,1.23086 1.5468703,0.0105 2.8125003,-0.54336 2.8125003,-1.23086 z m 144.375002,-2.27126 22.5,-3.35374 0.39552,-3.4375 c 0.25525,-2.21829 -0.18811,-3.42834 -1.25,-3.41168 -4.96177,0.0779 -47.79203,10.9137 -48.22065,12.19957 -0.66647,1.9994 0.20542,1.9339 26.57513,-1.99665 z m 155.06871,-15.14229 c -1.75653,-8.31944 -3.19371,-17.42828 -3.19371,-20.24186 0,-4.95728 -0.10638,-5.0888 -3.4375,-4.24958 -5.5155,1.38955 -116.77546,26.90499 -117.3191,26.90499 -0.27136,0 -0.4934,1.76396 -0.4934,3.9199 0,3.89649 0.0317,3.91541 5.3125,3.1666 10.5247,-1.4924 29.65819,-4.60051 62.77316,-10.19708 18.54087,-3.13348 34.37218,-5.4434 35.1807,-5.13314 0.80853,0.31026 2.70021,4.26077 4.20375,8.77891 2.45324,7.37199 3.07594,8.21692 6.0693,8.23537 1.83458,0.0113 5.58559,1.30909 8.33559,2.88397 2.75,1.57486 5.17155,2.45721 5.38121,1.96078 0.20968,-0.49643 -1.05595,-7.70942 -2.8125,-16.02886 z M 97.977588,180.97813 c 10.590632,-1.38694 20.521322,-2.8039 22.068192,-3.14881 2.71399,-0.60515 2.8125,-1.12245 2.8125,-14.76998 0,-7.77856 -0.33737,-14.48021 -0.74971,-14.89256 -0.41234,-0.41234 -2.06427,-0.15075 -3.67095,0.5813 -2.7676,1.261 -2.81746,1.48939 -0.94798,4.34257 1.47822,2.25604 1.65667,3.70434 0.71132,5.77288 -1.05129,2.30039 -4.47934,3.58305 -20.537122,7.6843 -20.78962,5.3098 -24.35407,5.3037 -23.01305,-0.0394 0.5234,-2.08537 0.35008,-2.93526 -0.49241,-2.41457 -0.71505,0.44193 -1.3001,4.98907 -1.3001,10.10474 0,11.06025 -2.47256,10.39293 25.11931,6.77953 z m -73.24431,0.0217 c 0.4249,-0.6875 0.17684,-1.25 -0.55123,-1.25 -0.72807,0 -1.32377,0.5625 -1.32377,1.25 0,0.6875 0.24805,1.25 0.55123,1.25 0.30317,0 0.89887,-0.5625 1.32377,-1.25 z m 11.875,-2.5 c 0,-0.6875 -0.5625,-1.25 -1.25,-1.25 -0.6875,0 -1.25,0.5625 -1.25,1.25 0,0.6875 0.5625,1.25 1.25,1.25 0.6875,0 1.25,-0.5625 1.25,-1.25 z m 7.22788,-2.30688 c 0.35822,-1.07578 -0.24282,-1.52625 -1.66784,-1.25 -1.22533,0.23753 -2.47989,1.18873 -2.78792,2.11376 -0.35822,1.07578 0.24282,1.52625 1.66784,1.25 1.22533,-0.23753 2.47989,-1.18873 2.78792,-2.11376 z m 8.75,-2.5 c 0.35822,-1.07578 -0.24282,-1.52625 -1.66784,-1.25 -1.22533,0.23753 -2.47989,1.18873 -2.78792,2.11376 -0.35822,1.07578 0.24282,1.52625 1.66784,1.25 1.22533,-0.23753 2.47989,-1.18873 2.78792,-2.11376 z m 102.147122,-3.74235 23.75,-5.97978 0.34134,-22.11049 c 0.18775,-12.16078 -0.0935,-22.09644 -0.625,-22.07927 -0.53149,0.0172 -11.65384,5.52141 -24.71634,12.23163 l -23.75,12.2004 -0.34985,15.89336 c -0.19241,8.74137 0.0889,15.87775 0.625,15.85867 0.53617,-0.0191 11.66235,-2.72563 24.72485,-6.01452 z m -21.5625,-16.06243 c 1.35734,-0.3547 2.1875,-1.77357 2.1875,-3.73873 0,-2.30164 -0.51238,-2.97047 -1.875,-2.44757 -1.03125,0.39572 -1.875,0.15905 -1.875,-0.52595 0,-1.16202 27.51977,-14.92609 29.8431,-14.92609 0.58192,0 3.16217,-1.42791 5.7339,-3.17313 3.66087,-2.48433 5.05542,-2.85812 6.42442,-1.72195 2.19623,1.8227 2.29194,10.38802 0.13609,12.17722 -2.73232,2.26762 -37.1623,15.22676 -40.04575,15.07286 -2.11413,-0.11288 -2.23153,-0.2718 -0.52926,-0.71666 z m 11.9542,-7.58608 c 0.27974,-2.89402 -0.12864,-4.05226 -1.42876,-4.05226 -1.9992,0 -3.33794,2.58442 -3.33794,6.44389 0,4.39675 4.32004,2.22923 4.7667,-2.39163 z m -66.016702,20.87396 c 0,-0.64692 -0.84375,-1.17622 -1.875,-1.17622 -1.93301,0 -2.48338,1.47495 -1.07565,2.88269 0.99866,0.99866 2.95065,-0.13024 2.95065,-1.70647 z M 110.95475,152.1274 c 0.6718,-0.65752 -0.73445,-0.53421 -3.125,0.27403 -5.59717,1.8924 -6.68368,2.95791 -1.84647,1.81079 2.0625,-0.48912 4.29966,-1.42728 4.97147,-2.08482 z M 384.20443,76.095983 c 4.3131,-4.313093 4.65319,-8.488559 1.06312,-13.05258 -4.40313,-5.597678 -13.58771,-4.23014 -17.20509,2.56175 -2.24803,4.220837 -1.76458,6.52659 2.19967,10.49083 4.74124,4.741241 9.20106,4.741241 13.9423,0 z M 377.00295,35.79565 c 8.17393,-4.353458 7.4637,-15.320445 -1.20561,-18.616512 -3.80934,-1.44831 -10.89175,1.245256 -12.83845,4.882691 -4.90596,9.166889 4.7992,18.657665 14.04406,13.733821 z m -186.39467,94.95418 c -0.825,-0.825 -1.5,-3.87751 -1.5,-6.78337 0,-5.21372 0.0942,-5.3265 7.14832,-8.55597 3.93158,-1.79994 7.4472,-3.71483 7.8125,-4.25532 0.3653,-0.54049 4.77519,-2.86373 9.79977,-5.16276 5.02456,-2.29903 9.68498,-5.20662 10.35647,-6.461315 0.67149,-1.254696 2.38448,-2.281266 3.80663,-2.281266 3.9227,0 19.43225,-8.587411 21.6656,-11.995926 4.31731,-6.589056 9.41071,-1.381844 9.41071,9.621003 0,7.945224 -0.23634,8.237414 -9.95976,12.313514 -6.37629,2.67296 -12.30599,5.36195 -34.41524,15.60654 -4.8125,2.22993 -10.71875,4.79717 -13.125,5.70498 -2.40625,0.90783 -4.90938,2.12293 -5.5625,2.70024 -1.66635,1.47291 -3.6811,1.30605 -5.4375,-0.45035 z"
     id="path3922" />
  <path
     inkscape:connector-curvature="0"
     style="fill:#dbe2e3;opacity:1"
     d="m 2.8582777,198.30042 c 0,-0.46324 0.70312,-1.12598 1.5625,-1.47274 1.25,-0.50439 1.25,-0.65021 0,-0.72916 -0.85938,-0.0543 -1.5625,-0.72137 -1.5625,-1.48243 0,-0.76105 0.70312,-1.11588 1.5625,-0.78851 0.85937,0.32737 6.3437503,-0.19141 12.1875003,-1.15286 5.84375,-0.96145 13.15625,-1.95319 16.25,-2.20388 14.87947,-1.20567 30.98449,-3.6646 34.24978,-5.2293 2.16574,-1.0378 4.17834,-1.29354 5,-0.63534 0.81543,0.6532 11.29726,-0.35036 25.75022,-2.46541 13.406252,-1.96187 24.796882,-3.58367 25.312502,-3.60401 1.33663,-0.0526 1.16676,-30.99771 -0.17472,-31.8268 -1.39486,-0.86206 -48.809592,15.3543 -51.467352,17.60241 -1.30331,1.10243 -2.37114,1.23673 -3.20482,0.40305 -1.34118,-1.34117 -42.8039,12.07277 -44.51498,14.4014 -0.5084,0.69189 -0.68849,1.90428 -0.4002,2.69418 0.76132,2.08596 -10.63663,4.82189 -11.85763,2.84626 -0.50231,-0.81276 -1.54371,-1.08811 -2.3142303,-0.61191 -2.32567,1.43735 -6.37857,-0.55129 -6.37857,-3.12978 0,-1.32866 0.73673,-2.41576 1.63718,-2.41576 0.90046,0 7.2285803,-2.21235 14.0625003,-4.91633 6.83393,-2.70397 21.98782,-8.64097 33.67532,-13.19333 35.13982,-13.68719 67.229272,-27.01107 71.875002,-29.84327 2.40625,-1.46693 6.37905,-3.79326 8.82845,-5.16961 16.34397,-9.18394 42.38474,-25.661115 45.93469,-29.064961 2.33027,-2.234375 5.16586,-4.0625 6.3013,-4.0625 1.13544,0 16.65176,-10.418514 34.48073,-23.152254 17.82897,-12.733739 33.0156,-22.953767 33.74807,-22.711174 0.78583,0.260268 1.47846,5.398795 1.68962,12.53512 l 0.35786,12.094042 -9.10786,5.673553 c -5.00932,3.120455 -20.07661,12.32887 -33.48286,20.463147 -13.40625,8.134277 -25.35938,15.702637 -26.5625,16.818577 -1.9309,1.79099 -2.1875,4.73295 -2.1875,25.08021 0,12.67818 0.43802,23.32195 0.97339,23.65283 0.783,0.48391 112.42442,-24.93704 120.68331,-27.47981 1.25494,-0.38638 1.99917,-0.98503 1.65386,-1.33034 -0.34531,-0.34531 -5.40089,0.31929 -11.23461,1.47689 -15.10084,2.9965 -16.55166,2.36917 -9.57595,-4.14059 3.09375,-2.8871 6.65005,-5.57705 7.9029,-5.97766 1.25285,-0.40062 2.00181,-1.44788 1.66436,-2.32726 -0.33745,-0.87937 0.38826,-3.24619 1.61269,-5.25959 1.70977,-2.81151 2.14215,-5.76337 1.86381,-12.72448 -0.3209,-8.025741 -0.73067,-9.353439 -3.57809,-11.593208 -4.42556,-3.481147 -4.03265,-5.693377 1.47183,-8.287035 l 4.6875,-2.208708 -0.33165,-8.11363 c -0.18241,-4.462496 -0.6271,-11.76988 -0.9882,-16.23863 -1.43791,-17.79439 6.21705,-23.12184 38.44702,-26.757144 6.66995,-0.752321 12.84834,-2.089987 13.72974,-2.972591 1.02496,-1.02635 1.47608,-4.180063 1.25164,-8.75 -0.49446,-10.0675845 1.32861,-12.2135995 10.1196,-11.9122365 14.38636,0.493178 31.53421,6.9569235 37.60902,14.1764255 3.13268,3.722976 4.35953,9.155656 2.3483,10.39866 -0.51673,0.319361 -5.13377,-0.749145 -10.26009,-2.374459 -5.12633,-1.625312 -9.34417,-2.837786 -9.37298,-2.694385 -0.57853,2.878801 -4.76877,8.184995 -7.91435,10.022112 -3.5207,2.056195 -4.60624,2.171212 -7.84206,0.830888 -9.13758,-3.784908 -11.10379,-12.108408 -4.60849,-19.508999 3.05823,-3.484476 3.40056,-4.27471 1.38483,-3.196672 -1.47272,0.787625 -4.19443,3.23461 -6.04825,5.437745 -2.6497,3.148992 -3.21013,4.82589 -2.62039,7.840676 2.45505,12.550403 17.7584,17.244168 26.6317,8.16834 l 3.63802,-3.721062 7.97583,2.618328 c 17.33384,5.690403 24.02712,14.311436 25.63596,33.019374 0.48153,5.599394 1.86513,11.971202 3.14411,14.479389 2.42578,4.757112 3.19345,12.590818 4.49237,45.841812 0.47705,12.21205 0.28711,19.63004 -0.52809,20.625 -0.7002,0.85459 -1.6856,9.64545 -2.18978,19.53524 -0.7698,15.10023 -1.29018,18.35493 -3.24775,20.3125 -2.18956,2.18956 -4.96776,2.32466 -45.76856,2.22558 -39.12957,-0.095 -56.69687,-0.83527 -58.27591,-2.45565 -1.29823,-1.33222 -8.28659,-37.41486 -8.28659,-42.78571 0,-3.24673 -0.50108,-5.90316 -1.1135,-5.90316 -3.36768,0 -122.22271,27.88789 -123.55011,28.98953 -0.87252,0.72412 -1.58639,2.93521 -1.58639,4.91352 0,4.14568 1.41564,4.40575 12.66337,2.3265 3.77988,-0.69875 10.49257,-1.77005 14.91708,-2.38066 4.4245,-0.61062 16.17011,-2.55398 26.10134,-4.31859 9.93123,-1.76461 18.2795,-2.98568 18.55168,-2.71349 0.27219,0.27219 2.95367,-0.2451 5.95883,-1.14952 7.06527,-2.12634 26.60549,-5.03618 27.54046,-4.1012 0.39625,0.39626 1.94036,4.27528 3.43135,8.62007 2.52721,7.36437 3.00731,7.94808 7.08589,8.615 5.03577,0.82345 10.81059,4.29215 12.54686,7.5364 1.06105,1.9826 0.45851,2.30753 -5.36326,2.89222 -10.10578,1.01493 -124.93265,3.56931 -150.85593,3.35585 -27.65658,-0.22774 -91.549922,1.88468 -110.702672,3.65999 -16.83843,1.56082 -43.1250003,2.20385 -43.1250003,1.05497 z m 46.8653503,-5.45304 c 16.29585,-0.33988 19.38465,-0.66366 19.38465,-2.03196 0,-1.0335 -3.04382,-1.20044 -10.89071,-0.59728 -15.25863,1.17286 -20.89715,2.17673 -18.95798,3.3752 0.88238,0.54534 2.18934,0.62998 2.90436,0.18807 0.71501,-0.4419 4.11687,-0.86222 7.55968,-0.93403 z m 65.009652,-3.82414 c 4.125,-0.23151 7.92188,-0.44398 8.4375,-0.47217 0.51563,-0.0282 0.9375,-1.17624 0.9375,-2.55124 0,-3.18471 -1.11467,-3.18259 -27.392372,0.0521 -35.79429,4.40623 -28.62291,5.58887 18.017372,2.97129 z m 36.875,-4.89966 c 7.21875,-1.02549 16.5,-2.42584 20.625,-3.1119 4.125,-0.68605 7.64062,-1.25062 7.8125,-1.25461 0.17187,-0.004 0.3125,-1.97599 0.3125,-4.38224 0,-2.95766 -0.57831,-4.375 -1.78513,-4.375 -2.58505,0 -49.57812,10.94659 -50.36314,11.73161 -0.36332,0.36331 -0.32407,1.5375 0.0872,2.6093 0.5617,1.46375 1.92227,1.7868 5.46692,1.29805 2.59552,-0.35788 10.62537,-1.48974 17.84412,-2.51521 z m -0.88125,-11.93821 c 11.14094,-2.78545 22.27772,-5.59596 24.74841,-6.24558 l 4.49216,-1.18112 0.85303,-22.72174 c 0.4972,-13.24399 0.37865,-23.19609 -0.2842,-23.85895 -0.68294,-0.68294 -11.30653,4.12513 -26.59518,12.03656 l -25.45797,13.17378 -0.34778,16.93076 c -0.23498,11.4399 0.0873,16.93075 0.99375,16.93075 0.73784,0 10.45684,-2.27901 21.59778,-5.06446 z m -15.64011,-22.46774 c -0.48033,-3.27264 -0.0729,-4.12403 2.42848,-5.07506 1.65309,-0.6285 3.10963,-1.14274 3.23675,-1.14274 0.12712,0 0.23113,1.96875 0.23113,4.375 0,2.40625 -0.37588,4.375 -0.83526,4.375 -0.4594,0 -1.65623,0.31502 -2.65962,0.70006 -1.30221,0.49972 -1.98952,-0.42536 -2.40148,-3.23226 z m 10.0536,-4.17594 c -0.53554,-4.58729 0.78618,-5.59061 15.79708,-11.99166 3.41239,-1.45513 7.22255,-3.56716 8.46704,-4.69341 3.13861,-2.8404 4.973,-0.63376 4.47641,5.3848 l -0.39777,4.82103 -13.125,5.24347 c -7.21875,2.88391 -13.48534,5.28857 -13.92574,5.34368 -0.44041,0.0551 -1.02182,-1.79343 -1.29202,-4.10791 z M 384.20443,76.095983 c 4.3131,-4.313093 4.65319,-8.488559 1.06312,-13.05258 -4.40313,-5.597678 -13.58771,-4.23014 -17.20509,2.56175 -2.24803,4.220837 -1.76458,6.52659 2.19967,10.49083 4.74124,4.741241 9.20106,4.741241 13.9423,0 z M 377.00295,35.79565 c 8.17393,-4.353458 7.4637,-15.320445 -1.20561,-18.616512 -3.80934,-1.44831 -10.89175,1.245256 -12.83845,4.882691 -4.90596,9.166889 4.7992,18.657665 14.04406,13.733821 z m -3.23321,-21.80103 c -0.41536,-0.415363 -1.4935,-0.459772 -2.39584,-0.09869 -0.99716,0.399032 -0.70097,0.695229 0.75522,0.755209 1.3177,0.05428 2.05598,-0.24116 1.64062,-0.656525 z M 36.171608,177.91487 c -0.90441,-2.35687 -0.91388,-2.35207 11.99564,-6.0939 6.01368,-1.74308 11.38429,-3.44754 11.93468,-3.7877 0.55039,-0.34017 1.81761,-0.10913 2.81603,0.51346 3.45911,2.15691 -0.5443,5.38216 -9.53695,7.68321 -10.64318,2.72339 -10.61803,2.7227 -9.67611,0.26812 0.56769,-1.47939 0.14969,-1.87465 -1.60173,-1.51462 -1.31219,0.26975 -2.29241,1.4421 -2.19628,2.62678 0.21197,2.61233 -2.75682,2.85446 -3.73528,0.30465 z m 16.41455,-4.22192 c 0.35822,-1.07578 -0.24282,-1.52625 -1.66784,-1.25 -1.22533,0.23753 -2.47989,1.18873 -2.78792,2.11375 -0.35822,1.07579 0.24282,1.52625 1.66784,1.25 1.22533,-0.23752 2.47989,-1.18872 2.78792,-2.11375 z m 25.98349,-5.33287 c 0.47241,-0.76438 0.15727,-1.8234 -0.70029,-2.3534 -0.93459,-0.57761 6.35411,-3.53216 18.19431,-7.37525 19.766632,-6.41586 21.711182,-6.58081 21.775472,-1.84715 0.036,2.65255 -3.12329,3.98732 -20.057722,8.47412 -18.36402,4.86558 -20.51672,5.21313 -19.21177,3.10168 z M 191.11702,129.02259 c -0.41731,-1.08747 -0.75874,-3.61063 -0.75874,-5.607 0,-3.88214 0.47356,-4.20022 24.27956,-16.30789 4.88485,-2.48443 9.64543,-5.43755 10.57905,-6.56251 0.93363,-1.124947 2.48642,-2.045361 3.45065,-2.045361 3.45422,0 19.17583,-8.8152 21.18186,-11.876795 4.3463,-6.633305 8.34803,-2.061947 7.75779,8.862087 l -0.37391,6.920159 -9.375,4.09145 c -5.15625,2.25029 -12.46875,5.52641 -16.25,7.28026 -22.25594,10.32291 -33.37398,15.04093 -35.7833,15.1849 -1.49974,0.0896 -2.46634,0.58481 -2.14798,1.10044 0.31835,0.51562 0.0433,0.9375 -0.61121,0.9375 -0.65452,0 -1.53147,-0.88975 -1.94877,-1.97724 z m 75.49126,-84.688555 0,-10.415795 4.6875,-3.730782 c 2.57812,-2.051932 5.63598,-4.083393 6.79523,-4.51436 4.73869,-1.761685 11.12655,7.83006 8.96535,13.462031 -0.96393,2.511961 -16.77718,15.6147 -18.84486,15.6147 -1.17602,0 -1.60322,-2.775394 -1.60322,-10.415794 z m 23.18815,-9.482026 c -0.39016,-0.631301 -0.84524,-4.332341 -1.01128,-8.224535 -0.35661,-8.35983 0.44966,-9.218005 12.39514,-13.193206 10.87699,-3.6196305 25.49763,-6.0885305 36.36549,-6.1408285 9.86654,-0.04748 13.21094,1.753259 14.7664,7.9507255 1.82486,7.270806 -0.77051,9.151769 -12.9441,9.381064 -8.93402,0.168276 -23.2711,3.242982 -35.89009,7.696931 -11.3624,4.010429 -12.62251,4.243435 -13.68156,2.529849 z"
     id="path3920" />
  <path
     inkscape:connector-curvature="0"
     style="fill:#0088aa;opacity:1"
     d="m 3.2878777,198.18733 c -0.61493,-0.99888 4.61913,-1.31966 19.2825903,-1.18178 5.35037,0.0504 8.78969,-0.39591 8.36373,-1.08513 -0.3979,-0.64383 0.99723,-1.17059 3.10031,-1.17059 3.77766,0 5.28895,2.07915 2.26127,3.11094 -2.88427,0.98291 -32.4239303,1.27516 -33.0079003,0.32656 z m 39.5704003,-2.04171 c 0,-1.43994 4.74521,-2.6651 6.98838,-1.80432 0.961,0.36878 1.43604,1.17405 1.05567,1.7895 -0.89601,1.44979 -8.04405,1.46294 -8.04405,0.0148 z m 13.125,-1.39579 c 0.4249,-0.6875 3.02254,-1.25 5.77254,-1.25 3.01503,0 4.69331,0.49624 4.22746,1.25 -0.4249,0.6875 -3.02254,1.25 -5.77254,1.25 -3.01503,0 -4.69331,-0.49624 -4.22746,-1.25 z m 14.67971,0.41955 c -3.23435,-1.30396 0.0556,-2.91955 5.94529,-2.91955 6.17329,0 9.13221,1.60619 5.51559,2.99402 -2.30313,0.88379 -9.19509,0.839 -11.46088,-0.0745 z m 15.98974,-2.34811 c 1.18725,-1.43055 3.9081,-1.98061 9.86014,-1.99338 16.901142,-0.0362 27.016712,-0.56495 28.507082,-1.48993 0.84516,-0.52455 5.90767,-1.51142 11.24999,-2.19303 5.34234,-0.68161 13.65084,-1.74282 18.46334,-2.35825 4.8125,-0.61542 9.875,-1.44219 11.25,-1.83725 1.375,-0.39506 7,-1.26 12.5,-1.92207 5.5,-0.66209 12.8125,-1.80195 16.25,-2.53305 3.4375,-0.7311 10.46875,-1.85042 15.625,-2.48735 5.15625,-0.63695 16.96875,-2.59873 26.25,-4.35949 9.28125,-1.76078 18.14547,-2.89611 19.69829,-2.523 1.55281,0.37312 4.36531,-0.10575 6.25,-1.06425 3.7402,-1.90208 17.58607,-4.56039 23.7529,-4.56039 3.63832,0 3.99676,0.43276 5.95326,7.1875 2.57511,8.89045 3.70984,10.3125 8.22889,10.3125 3.67299,0 12.48511,6.54821 10.9193,8.11402 -0.45135,0.45137 -19.01347,1.3475 -41.24914,1.99144 -43.56489,1.26161 -93.88114,2.59429 -97.9285,2.59374 -1.375,-1.9e-4 -13.46875,-0.0462 -26.875,-0.10225 -13.40625,-0.056 -32.46831,0.19108 -42.36013,0.54916 -16.296412,0.58995 -17.831182,0.46557 -16.345422,-1.32466 z M 3.0791177,181.43563 c 0.22229,-1.13531 1.58526,-2.24388 3.02883,-2.46349 2.68023,-0.40775 40.2970703,-14.12901 47.7302403,-17.41026 2.2577,-0.99663 4.63599,-1.81205 5.28508,-1.81205 0.6491,0 5.27064,-1.89461 10.27009,-4.21026 4.99946,-2.31564 19.31845,-8.26019 31.819992,-13.2101 12.50154,-4.94992 23.39854,-9.8053 24.21556,-10.78974 0.81701,-0.98445 1.91454,-1.7899 2.43894,-1.7899 0.52442,0 6.92537,-3.65625 14.22435,-8.125 7.29899,-4.46875 13.52285,-8.125 13.83082,-8.125 0.30796,0 3.06033,-1.6875 6.11637,-3.75 3.05605,-2.0625 6.10913,-3.75 6.78462,-3.75 0.67548,0 1.96087,-0.88286 2.8564,-1.9619 0.89552,-1.07905 2.65189,-1.69421 3.90305,-1.36703 1.29074,0.33754 2.27482,-0.0713 2.27482,-0.9452 0,-1.928419 5.27115,-6.975871 7.28503,-6.975871 2.21446,0 6.82347,-2.811788 8.70813,-5.3125 0.90673,-1.203125 2.23888,-2.1875 2.96034,-2.1875 0.72146,0 3.528,-1.755311 6.23676,-3.90069 2.70876,-2.14538 5.27075,-3.554964 5.6933,-3.132408 0.42256,0.422555 1.39761,-0.494008 2.16678,-2.03681 0.76917,-1.542801 2.22563,-2.805092 3.23657,-2.805092 1.01095,0 2.75799,-1.106756 3.88231,-2.459459 1.64207,-1.975599 2.40246,-2.162171 3.86502,-0.948345 2.21957,1.842081 3.46576,0.793288 3.46576,-2.916794 0,-3.205032 3.6719,-5.163525 5.21256,-2.78024 0.83141,1.286125 1.26271,1.254984 2.17179,-0.156807 0.62389,-0.968905 0.86151,-2.472641 0.52805,-3.341635 -0.33346,-0.868994 0.5061,-2.175328 1.8657,-2.902963 1.94074,-1.038653 2.63635,-0.894682 3.23674,0.669916 1.10681,2.884298 4.78572,-0.372472 3.82831,-3.389022 -0.4685,-1.476097 0.16531,-2.717607 1.84677,-3.617501 2.06335,-1.104269 2.56008,-0.997772 2.56008,0.54887 0,2.257597 1.43759,2.481389 3.39109,0.527895 0.76508,-0.765096 1.97802,-1.028332 2.6954,-0.584969 1.81761,1.12334 0.39236,4.234951 -2.33649,5.101054 -2.2091,0.701139 -4.35935,4.182311 -3.26148,5.280185 0.30105,0.301051 1.6864,-0.06223 3.07857,-0.80729 1.85112,-0.990696 2.7708,-0.966957 3.42302,0.08835 0.79811,1.291376 -1.81426,4.130133 -4.67976,5.085299 -0.59681,0.19894 -1.34316,1.701585 -1.65854,3.339212 -0.78547,4.078665 -1.63004,4.660335 -4.3239,2.977989 -2.63314,-1.644419 -3.82791,-0.918548 -3.82791,2.325609 0,1.236227 -1.125,2.849768 -2.5,3.585646 -1.69499,0.907131 -2.5,0.921292 -2.5,0.04398 0,-0.711684 -0.5625,-1.293975 -1.25,-1.293975 -0.6875,0 -1.25,0.774875 -1.25,1.721944 0,0.94707 -0.84375,2.422195 -1.875,3.278056 -1.48859,1.23542 -2.25836,1.23795 -3.73521,0.01225 -1.8973,-1.574621 -2.03034,-1.412876 -3.84548,4.675224 -0.25621,0.859375 -1.54832,1.5625 -2.87135,1.5625 -1.32301,0 -2.72926,0.84375 -3.125,1.875 -0.39572,1.03125 -1.80197,1.875 -3.125,1.875 -1.32301,0 -2.67775,0.709499 -3.01051,1.576662 -0.33276,0.867165 -3.25329,2.97654 -6.49006,4.68751 -3.23676,1.71096 -6.82156,3.68483 -7.96622,4.38637 -8.637,5.29358 -12.70617,8.31977 -12.70617,9.44939 0,0.76493 -1.08733,0.97347 -2.58958,0.49667 -1.54462,-0.49026 -3.43615,-0.0895 -4.6875,0.99308 -1.90845,1.65106 -8.07592,4.99709 -38.34792,20.8048 -5.5,2.87204 -10.84375,5.68491 -11.875,6.25084 -1.03125,0.56594 -7.21875,2.7555 -13.75,4.8657 -6.53125,2.1102 -17.500002,5.87821 -24.375002,8.37335 -6.875,2.49514 -14.46875,4.67509 -16.875,4.84436 -4.73711,0.33323 -62.3608903,19.06076 -64.3125003,20.90136 -1.89107,1.78348 -3.4063,1.3012 -2.96666,-0.94426 z M 226.30454,76.529421 c -1.23024,-1.230228 -3.44626,0.658359 -3.44626,2.937037 0,1.908091 0.16441,1.904667 2.1131,-0.04401 1.1622,-1.162202 1.76212,-2.464064 1.33316,-2.893026 z m 7.56936,-4.201467 c 0.3125,-0.9375 -0.15625,-1.40625 -1.09375,-1.09375 -0.90235,0.300781 -1.88672,1.285156 -2.1875,2.1875 -0.3125,0.9375 0.15625,1.40625 1.09375,1.09375 0.90234,-0.300781 1.88672,-1.285156 2.1875,-2.1875 z m 8.35938,-3.828125 c 1.35107,-2.18608 -0.65244,-4.033343 -2.61129,-2.407642 -0.97004,0.805064 -1.76371,1.957378 -1.76371,2.560698 0,1.506976 3.42305,1.387223 4.375,-0.153056 z M 105.69457,182.63359 c 1.21621,-0.31692 2.90371,-0.29609 3.75,0.0464 0.84629,0.34241 -0.14879,0.60171 -2.21129,0.57624 -2.0625,-0.0255 -2.75492,-0.30563 -1.53871,-0.62256 z m 17.16371,-2.74856 c 16.90251,-3.60146 56.6648,-13.80779 59.04554,-15.15601 1.1938,-0.67605 3.23548,-1.22919 4.53708,-1.22919 1.3016,0 28.81264,-6.1875 61.13564,-13.75 32.323,-7.5625 59.67194,-13.75 60.77541,-13.75 3.05854,0 2.39108,3.61205 -0.80617,4.36265 -1.54688,0.36315 -28.6875,6.55932 -60.3125,13.76928 -31.625,7.20995 -58.625,13.39655 -60,13.74801 -18.75211,4.79315 -61.7441,13.66301 -67.5,13.92621 l -7.5,0.34295 10.625,-2.2639 z m 220.08885,0.21916 c -6.46344,-3.36185 -9.23161,-7.97582 -9.7643,-16.27506 -0.53998,-8.41292 2.09099,-13.79031 8.72652,-17.83605 3.74972,-2.28622 6.34029,-2.48427 32.55158,-2.48857 31.84398,-0.005 35.31017,0.67134 39.61531,7.73259 3.05255,5.00679 3.43927,16.88249 0.72093,22.13918 -4.03038,7.79389 -5.89218,8.2133 -38.18889,8.60291 -26.1844,0.31588 -29.84055,0.11225 -33.66115,-1.875 z m 63.55466,-3.4243 c 3.91505,-2.02455 7.60649,-8.68367 7.60649,-13.72162 0,-5.45951 -3.31436,-11.66897 -7.33945,-13.75041 -3.11714,-1.61194 -8.90114,-1.95803 -32.72348,-1.95803 l -28.93707,0 -4.25,4.25 c -3.79646,3.79646 -4.25,4.97902 -4.25,11.08142 0,7.35396 2.86421,12.6244 7.98515,14.69349 1.45191,0.58664 15.18341,1.10228 30.51443,1.14585 22.07697,0.0627 28.60656,-0.29929 31.39393,-1.7407 z m -52.60227,-0.31537 c -1.83357,-0.2809 -4.78669,-1.85725 -6.5625,-3.50302 -2.6353,-2.44232 -3.22874,-4.1316 -3.22874,-9.19087 0,-5.38711 0.50347,-6.62221 3.84591,-9.43469 3.8422,-3.233 3.86878,-3.23611 27.59615,-3.23611 l 23.75025,0 3.65384,3.65385 c 7.05903,7.05901 3.7706,18.55736 -6.09051,21.29612 -4.37229,1.21433 -35.76686,1.51738 -42.9644,0.41472 z m -316.666242,0.88531 c 0.4249,-0.6875 1.02059,-1.25 1.32377,-1.25 0.30318,0 0.55123,0.5625 0.55123,1.25 0,0.6875 -0.5957,1.25 -1.32377,1.25 -0.72808,0 -0.97613,-0.5625 -0.55123,-1.25 z m 7.10937,-1.32813 c 0.30079,-0.90235 1.28516,-1.88672 2.1875,-2.1875 0.9375,-0.3125 1.40625,0.15625 1.09375,1.09375 -0.30078,0.90234 -1.28515,1.88672 -2.1875,2.1875 -0.9375,0.3125 -1.40625,-0.15625 -1.09375,-1.09375 z m 8.51563,-2.45281 c 0,-1.44466 5.3187,-3.74066 8.51887,-3.67747 1.70061,0.0336 1.53794,0.51493 -0.84485,2.5 -3.13904,2.61507 -7.67402,3.31091 -7.67402,1.17747 z m 26.25,-6.53439 c 0,-0.90425 6.99478,-3.83801 16.5625,-6.94668 9.109382,-2.95975 17.265332,-5.67714 18.124342,-6.03863 1.89041,-0.79552 3.59502,3.0198 2.04164,4.56968 -0.85051,0.84858 -34.013732,9.98096 -36.244792,9.98096 -0.26603,0 -0.48369,-0.7044 -0.48369,-1.56533 z m 56.250002,-17.80967 c 0,-1.71875 0.23525,-3.125 0.52276,-3.125 0.28753,0 1.41253,-0.34142 2.5,-0.75874 1.47805,-0.56717 1.97724,0.0302 1.97724,2.36626 0,1.71875 -0.88975,3.46644 -1.97724,3.88374 -2.9168,1.11929 -3.02276,1.03633 -3.02276,-2.36626 z m 10,-3.79063 c 0,-2.78976 1.57601,-3.92023 13.2735,-9.521 10.57555,-5.0636 13.49157,-6.00811 14.34646,-4.64687 0.83273,1.32596 0.46714,5.61759 -0.58775,6.89956 -0.25657,0.3118 -26.00342,10.43394 -26.53997,10.43394 -0.27073,0 -0.49224,-1.42454 -0.49224,-3.16563 z m 138.75,-10.021 c 0,-3.11678 9.01486,-9.20047 14.92206,-10.07016 8.9291,-1.3146 11.8058,-2.94876 4.78944,-2.72073 -3.25243,0.1057 -6.21879,-0.1131 -6.59193,-0.48623 -1.1482,-1.14821 0.79697,-4.78742 3.26484,-6.10819 1.97471,-1.05683 2.10004,-1.6372 0.80226,-3.71527 -1.2283,-1.96681 -1.20507,-2.99594 0.11525,-5.11016 1.18583,-1.89883 1.27085,-3.02983 0.30068,-4 -2.18622,-2.18623 -1.561,-5.402342 1.45987,-7.509601 2.78225,-1.940799 2.76373,-1.962605 -1.72194,-2.027465 -4.77967,-0.06911 -8.05937,-2.639384 -6.97469,-5.466012 1.47831,-3.8524 19.54766,-7.201742 48.53302,-8.996097 l 13.27389,-0.821727 0.68184,-6.606359 c 1.42581,-13.8149 8.15662,-20.963831 19.7377,-20.963831 11.28702,0 18.00106,7.389537 19.46827,21.426974 0.72698,6.955353 1.09749,7.718806 4.05723,8.359976 13.55795,2.937075 23.42235,5.762304 24.69957,7.074121 0.85453,0.877664 1.77161,6.550975 2.11,13.052971 0.3292,6.32533 1.01712,12.17786 1.52871,13.00564 0.58997,0.95458 0.40235,1.17884 -0.51296,0.61315 -0.7937,-0.49055 -1.44311,-0.32941 -1.44311,0.35809 0,0.6875 0.51627,1.56907 1.14728,1.95905 1.55444,0.96071 1.36038,14.85895 -0.22154,15.86573 -0.6933,0.44122 -3.00539,0.30181 -5.13798,-0.30982 -8.13042,-2.33176 -38.0689,-3.86401 -59.53776,-3.04712 -27.78867,1.05736 -59.43244,3.80036 -70.3125,6.09496 -6.86429,1.44768 -8.4375,1.47529 -8.4375,0.14811 z M 384.79009,76.681648 c 6.25243,-6.252419 2.87929,-16.337713 -5.93632,-17.748979 -4.0025,-0.64075 -5.14525,-0.225384 -8.4375,3.066864 -7.19812,7.198116 -3.14555,17.750296 6.81701,17.750296 3.09905,0 5.43849,-0.949846 7.55681,-3.068181 z M 192.1431,126.84059 c -1.75703,-4.57879 0.36723,-6.60662 15.38633,-14.68783 8.4045,-4.52214 16.32036,-9.16276 17.5908,-10.3125 1.27045,-1.14974 3.0006,-2.090431 3.84479,-2.090431 2.95488,0 20.78317,-9.942305 22.34135,-12.459104 0.8652,-1.397492 2.08721,-2.540896 2.71556,-2.540896 1.9295,0 4.12895,8.673419 3.30849,13.046846 -0.66249,3.531325 -1.63712,4.459295 -6.68634,6.366245 -3.25094,1.22779 -9.8483,4.06344 -14.6608,6.30145 -20.62348,9.59075 -37.69651,17.08067 -40.29695,17.67824 -1.8213,0.41852 -3.05728,-0.0356 -3.54323,-1.30202 z m 75.29852,-74.174095 c -1.26518,-1.265166 -0.99563,-15.277777 0.34195,-17.777067 2.00455,-3.745544 10.89814,-9.193457 13.6054,-8.334208 2.88982,0.917198 5.5979,6.762663 5.0093,10.812748 -0.24029,1.653404 -3.7096,5.650013 -8.24114,9.493681 -7.83311,6.644083 -9.15836,7.362004 -10.71551,5.804846 z m 23.78159,-17.528468 c -1.33393,-2.158333 -2.35886,-10.49615 -1.64155,-13.354098 0.82391,-3.282737 8.04136,-6.714731 21.40162,-10.176762 8.46831,-2.1943845 29.94171,-3.8635825 34.61476,-2.6907205 5.15651,1.2942015 8.33084,12.1754125 4.033,13.8246465 -1.08747,0.417305 -4.38879,0.758736 -7.33626,0.758736 -11.78388,0 -33.39943,5.261257 -48.37256,11.773958 -1.13359,0.493062 -2.34814,0.43197 -2.69902,-0.13576 z M 393.736,29.527054 c -6.37566,-2.221681 -7.48303,-3.114636 -9.20758,-7.424716 -1.07818,-2.694621 -3.37714,-6.01378 -5.1088,-7.37591 l -3.14849,-2.476599 3.71892,0 c 4.88168,0 18.39077,6.805858 21.59519,10.879622 2.79747,3.556403 3.39573,9.175496 0.96054,9.021694 -0.85937,-0.05428 -4.82377,-1.235117 -8.80977,-2.624091 z M 355.35828,16.714115 c 0,-7.0941755 3.50003,-9.2017815 12.34375,-7.4330355 4.87116,0.9742325 4.9555,2.2308325 0.27972,4.1676065 -1.9946,0.826187 -4.90515,2.863179 -6.4679,4.52665 -4.046,4.306769 -6.15557,3.874535 -6.15557,-1.261221 z"
     id="path3918" />
  <ellipse
     style="opacity:1;fill:#ffff00"
     id="path3348"
     cx="371.99396"
     cy="27.405249"
     rx="9.3084679"
     ry="9.9979839" />
  <ellipse
     style="opacity:1;fill:#ffff00"
     id="path3370"
     cx="377.78629"
     cy="69.465714"
     rx="8.9637098"
     ry="9.3084679" />
</svg>
