<?xml version="1.0"?><svg width="491.57776" height="491.57776" xmlns="http://www.w3.org/2000/svg">

 <metadata id="metadata7">image/svg+xml</metadata>
 <g>
  <title>Layer 1</title>
  <g id="svg_1">
   <text font-size="40px" font-style="normal" font-weight="normal" fill="#ffaaaa" font-family="Bitstream Vera Sans" id="text3590" y="70.792333" x="271.465747" xml:space="preserve"/>
   <path fill="#ffaaaa" fill-rule="evenodd" stroke="#000000" stroke-width="1.096674px" d="m331.108002,435.916992c-1.177002,-62.53598 -0.644012,-125.210999 -2.908997,-187.658997c-6.365997,-32.28299 -16.742004,-64.084991 -16.649994,-97.320999c0.036987,-13.405991 -4.926025,-33.570999 4.850983,-39.879997c11.787994,-7.607002 9.032013,-21.818802 -6.475006,-10.510002c-15.340973,-0.32 -21.644989,-31.782997 -10.957001,-41.334698c5.531006,-11.766899 -9.824982,-33.870399 11.249023,-34.499699c13.020996,2.3587 28.47699,1.6171 37.948975,12.5214c12.063019,7.302898 17.172028,26.870697 8.846008,39.779099c-13.156006,9.939903 2.345001,22.239899 14.942993,25.932899c12.529022,3.673004 17.459015,23.583 26.393005,35.147003c10.313995,16.030991 13.455994,34.110001 14.433014,51.595993c1.024994,18.340012 -2.382019,35.763 -12.282013,52.973999c-6.535004,6.843002 -13.070007,13.686005 -19.60498,20.528015c-3.97702,49.222992 -8.084015,98.506989 -16.988007,147.131989c-1.343994,8.532013 -2.688019,17.062988 -4.03302,25.593994c11.765015,15.737 -40.609985,50.713013 -54.446991,39.141998c-12.113007,-2.510986 -7.264008,-7.985992 -0.300995,-15.000977c8.556,-8.621002 21.592987,-20.314026 25.983002,-24.141022z" id="path4308"/>
   <path fill="#ffaaaa" fill-rule="evenodd" stroke="#000000" stroke-width="1.096674px" d="m233.039993,477.356995c-18.71199,-8.710999 -7.133987,-40.11499 -6.612,-58.704987c1.832001,-45.89502 0.755005,-91.975006 1.546005,-137.946014c-0.526993,-22.897003 0.746002,-45.804001 7.375,-67.883987c2.774994,-16.585007 12.291,-29.960007 23.604004,-41.811005c13.428009,-14.063004 -8.216003,-35.481995 3.52301,-51.846001c6.53299,-10.703003 24.610992,-0.014 24.062988,-19.178703c12.855988,-15.346001 -16.985016,-29.3377 -2.188995,-44.335297c12.708008,-11.340801 -19.028992,-18.840302 -27.631012,-8.741302c-17.832001,6.465103 -30.431992,19.015602 -40.658997,34.497704c-9.097,17.461998 7.029007,43.152596 -9.578995,57.110603c-12.214996,5.867996 -38.456009,13.763 -27.494003,31.602997c-0.569992,17.324005 -28.496002,25.701004 -32.434006,41.069992c-13.587997,2.16301 -32.442993,-1.457001 -35.530991,17.14801c1.145996,10.289993 23.656998,-11.928009 24.61499,0.300995c13.262009,-3.016006 16.228012,-17.067001 28.284012,-21.319992c13.675995,-7.359009 27.352997,-14.718002 41.028992,-22.077011c7.645996,23.678009 -25.895996,28.975006 -41.043991,37.098999c-13.859009,7.835999 -27.009003,18.299011 -36.998009,30.812012c-13.348999,22.406998 -28.309998,44.051987 -37.184494,68.797989c-10.412704,22.666992 -18.195305,46.778015 -28.864704,69.118011c13.603703,9.197998 23.711498,28.02298 36.3437,41.647003c18.190498,9.544983 19.488503,19.575989 39.238495,13.128998c19.228012,-2.421021 41.783005,-12.15802 59.435013,-1.742004c2.760986,7.022003 -4.639008,46.02301 7.030991,33.294983c5.283005,0.56601 -0.765991,1.803009 14.19101,0.287018c4.158997,0.475006 11.781998,-0.175995 15.941986,-0.32901z" id="path4310"/>
  </g>
 </g>
</svg>