<?xml version="1.0" encoding="UTF-8" standalone="no"?>
<!--?xml version="1.0" standalone="no"?-->

<svg
   xmlns:dc="http://purl.org/dc/elements/1.1/"
   xmlns:cc="http://creativecommons.org/ns#"
   xmlns:rdf="http://www.w3.org/1999/02/22-rdf-syntax-ns#"
   xmlns:svg="http://www.w3.org/2000/svg"
   xmlns="http://www.w3.org/2000/svg"
   xmlns:sodipodi="http://sodipodi.sourceforge.net/DTD/sodipodi-0.dtd"
   xmlns:inkscape="http://www.inkscape.org/namespaces/inkscape"
   width="300.000000pt"
   height="288.000000pt"
   viewBox="0 0 300.000000 288.000000"
   preserveAspectRatio="xMidYMid meet"
   id="svg2"
   version="1.1"
   inkscape:version="0.91 r13725"
   sodipodi:docname="train-station-sh.svg">
  <metadata
     id="metadata27">
    <rdf:RDF>
      <cc:Work
         rdf:about="">
        <dc:format>image/svg+xml</dc:format>
        <dc:type
           rdf:resource="http://purl.org/dc/dcmitype/StillImage" />
      </cc:Work>
    </rdf:RDF>
  </metadata>
  <defs
     id="defs25" />
  <sodipodi:namedview
     pagecolor="#ffffff"
     bordercolor="#666666"
     borderopacity="1"
     objecttolerance="10"
     gridtolerance="10"
     guidetolerance="10"
     inkscape:pageopacity="0"
     inkscape:pageshadow="2"
     inkscape:window-width="1380"
     inkscape:window-height="778"
     id="namedview23"
     showgrid="false"
     inkscape:zoom="1.6"
     inkscape:cx="79.375"
     inkscape:cy="180"
     inkscape:window-x="0"
     inkscape:window-y="0"
     inkscape:window-maximized="0"
     inkscape:current-layer="svg2" />
  <g
     transform="matrix(0.1,0,0,-0.1,-75.56518,311.84693)"
     id="g4"
     style="fill:#c87137;stroke:none">
    <path
       class="node"
       id="node1"
       d="m 2845,2785 c -77,-45 -207,-122 -290,-170 -82,-47 -217,-126 -300,-174 -82,-49 -231,-136 -330,-193 l -180,-105 0,-49 0,-49 320,-5 320,-5 3,-553 2,-553 -152,3 -369.3981,-2 L 1746,930 c -64.5,0 -123.75,-0.75 -167.125,-2 -43.375,-1.25 -70.875,-3 -71.875,-5 -2,-5 -2,-25 0,-45 l 5,-38 203,0 202,0 6,-137 c 4,-75 7,-169 7,-210 l 0,-73 535,0 535,0 0,1225 c 0,674 -3,1225 -7,1224 -5,0 -71,-38 -148,-84 z"
       inkscape:connector-curvature="0"
       sodipodi:nodetypes="cccccccccccccssccccccscccscc"
       style="fill:#c87137" />
  </g>
</svg>
